<svg id="Group_4013" data-name="Group 4013" xmlns="http://www.w3.org/2000/svg" width="13.029" height="17.999" viewBox="0 0 13.029 17.999">
  <g id="Path" transform="translate(-0.205)" fill="none">
    <path d="M6.724,18a1.006,1.006,0,0,1-.841-.444l-3.93-5.979c-.2-.31-.4-.628-.575-.953C.12,8.268-.627,4.765,1.807,1.928A7.065,7.065,0,0,1,6.724,0a7.07,7.07,0,0,1,4.917,1.927c2.434,2.71,1.674,6.388.392,8.763-.151.281-.321.556-.5.824L7.565,17.555A1.006,1.006,0,0,1,6.724,18Z" stroke="none"/>
    <path d="M 6.72445821762085 16.28627395629883 L 10.36630630493164 10.7475528717041 C 10.5471363067627 10.47144317626953 10.68524646759033 10.2426233291626 10.80193614959717 10.0256233215332 C 11.43141651153564 8.859153747558594 11.79722595214844 7.569013118743896 11.83197593688965 6.392863273620605 C 11.87238597869873 5.025283336639404 11.46992111206055 3.851234197616577 10.63570117950439 2.90246057510376 C 9.600266456604004 1.933179259300232 8.213507652282715 1.40000331401825 6.724406242370605 1.40000331401825 C 5.240494728088379 1.40000331401825 3.858462572097778 1.929579019546509 2.824618339538574 2.892627477645874 C 0.6276459097862244 5.516609191894531 1.941781759262085 8.707383155822754 2.611336231231689 9.96052360534668 C 2.750046014785767 10.21868324279785 2.916986227035522 10.49502372741699 3.122926235198975 10.80723285675049 L 6.72445821762085 16.28627395629883 M 6.724406242370605 17.99924278259277 C 6.382816314697266 17.99924278259277 6.065056324005127 17.83139419555664 5.883336067199707 17.55543327331543 L 1.953036189079285 11.57623291015625 C 1.748476147651672 11.26612377166748 1.552856087684631 10.94843292236328 1.378086090087891 10.6231632232666 C 0.1199561357498169 8.268463134765625 -0.6271438598632812 4.76512336730957 1.807066082954407 1.927953243255615 C 3.107896089553833 0.6846932768821716 4.853586196899414 3.298644969618181e-06 6.724406242370605 3.298644969618181e-06 C 8.594225883483887 3.298644969618181e-06 10.34091567993164 0.6846932768821716 11.64174652099609 1.927003264427185 C 14.07579612731934 4.637133121490479 13.31594657897949 8.314932823181152 12.03398609161377 10.6904935836792 C 11.88304615020752 10.97119331359863 11.71324634552002 11.24621295928955 11.53748607635498 11.51458358764648 L 7.565475940704346 17.55543327331543 C 7.383756160736084 17.83139419555664 7.065996170043945 17.99924278259277 6.724406242370605 17.99924278259277 Z" stroke="none" fill="#fff"/>
  </g>
  <g id="Ellipse_351" data-name="Ellipse 351" transform="translate(3.713 3.937)" fill="none" stroke="#fff" stroke-width="1.4">
    <circle cx="2.812" cy="2.812" r="2.812" stroke="none"/>
    <circle cx="2.812" cy="2.812" r="2.112" fill="none"/>
  </g>
</svg>
