<svg xmlns="http://www.w3.org/2000/svg" xmlns:xlink="http://www.w3.org/1999/xlink" width="15.436" height="12.536" viewBox="0 0 15.436 12.536">
  <defs>
    <clipPath id="clip-path">
      <path id="Path_20045" data-name="Path 20045" d="M20.724-18.748c.01.137.01.274.01.411a8.939,8.939,0,0,1-9,9,8.942,8.942,0,0,1-4.858-1.419,6.474,6.474,0,0,0,.764.039,6.337,6.337,0,0,0,3.927-1.352,3.169,3.169,0,0,1-2.958-2.194,3.948,3.948,0,0,0,.6.049,3.361,3.361,0,0,0,.833-.107,3.164,3.164,0,0,1-2.537-3.1v-.039a3.186,3.186,0,0,0,1.43.4A3.161,3.161,0,0,1,7.522-19.7a3.141,3.141,0,0,1,.431-1.6,8.993,8.993,0,0,0,6.523,3.311,3.571,3.571,0,0,1-.078-.725,3.162,3.162,0,0,1,.926-2.238,3.162,3.162,0,0,1,2.238-.926,3.156,3.156,0,0,1,2.311,1,6.228,6.228,0,0,0,2.008-.764,3.155,3.155,0,0,1-1.391,1.744,6.342,6.342,0,0,0,1.822-.49,6.8,6.8,0,0,1-1.587,1.636Z" transform="translate(-6.875 21.873)" fill="#575757"/>
    </clipPath>
    <clipPath id="clip-path-2">
      <path id="Path_20044" data-name="Path 20044" d="M-535,136.947H194.515V-319H-535Z" transform="translate(535 319)" fill="#575757"/>
    </clipPath>
  </defs>
  <g id="Group_3860" data-name="Group 3860" clip-path="url(#clip-path)">
    <g id="Group_3859" data-name="Group 3859" transform="translate(-514.721 -282.238)" clip-path="url(#clip-path-2)">
      <path id="Path_20043" data-name="Path 20043" d="M1.875-26.873H26.81V-4.837H1.875Z" transform="translate(508.097 304.361)" fill="#575757"/>
    </g>
  </g>
</svg>
